<?xml version="1.0" encoding="UTF-8"?>
<svg xmlns="http://www.w3.org/2000/svg" version="1.1" xmlns:xlink="http://www.w3.org/1999/xlink" viewBox="0 0 500 350">
  <!-- Generator: Adobe Illustrator 29.8.2, SVG Export Plug-In . SVG Version: 2.1.1 Build 3)  -->
  <defs>
    <style>
      .st0 {
        stroke: #000;
      }

      .st0, .st1 {
        font-family: TwCenMT-Regular, 'Tw Cen MT';
        font-size: 124px;
        stroke-linecap: round;
        stroke-linejoin: round;
      }

      .st2 {
        opacity: .15;
      }

      .st1 {
        stroke: #fff;
      }

      .st1, .st3 {
        fill: #0095d6;
      }

      .st4 {
        fill: url(#linear-gradient);
      }
    </style>
    <linearGradient id="linear-gradient" x1="250" y1="2" x2="250" y2="348" gradientUnits="userSpaceOnUse">
      <stop offset="0" stop-color="#ffe056"/>
      <stop offset=".22" stop-color="#ffdc57"/>
      <stop offset=".42" stop-color="#ffd15c"/>
      <stop offset=".61" stop-color="#ffbf63"/>
      <stop offset=".79" stop-color="#ffa56e"/>
      <stop offset=".97" stop-color="#ff847c"/>
      <stop offset="1" stop-color="#ff7f7f"/>
    </linearGradient>
  </defs>
  <g id="Layer_2">
    <g>
      <rect class="st4" x="2" y="2" width="496" height="346" rx="49.12" ry="49.12"/>
      <path class="st3" d="M448.88,4c25.98,0,47.12,21.14,47.12,47.12v247.76c0,25.98-21.14,47.12-47.12,47.12H51.12c-25.98,0-47.12-21.14-47.12-47.12V51.12C4,25.14,25.14,4,51.12,4h397.76M448.88,0H51.12C22.89,0,0,22.89,0,51.12v247.76c0,28.23,22.89,51.12,51.12,51.12h397.76c28.23,0,51.12-22.89,51.12-51.12V51.12c0-28.23-22.89-51.12-51.12-51.12h0Z"/>
    </g>
  </g>
  <g id="Layer_1">
    <g>
      <g class="st2">
        <text class="st0" transform="translate(82.59 168)"><tspan x="0" y="0">ORDER </tspan><tspan x="30.36" y="100">PIZZA</tspan></text>
      </g>
      <text class="st1" transform="translate(75.59 163)"><tspan x="0" y="0">ORDER </tspan><tspan x="30.36" y="100">PIZZA</tspan></text>
    </g>
  </g>
</svg>