<?xml version="1.0" encoding="UTF-8"?>
<svg id="Layer_1" data-name="Layer 1" xmlns="http://www.w3.org/2000/svg" viewBox="0 0 299.44 306.22">
  <defs>
    <style>
      .cls-1 {
        fill: #f1ca09;
      }

      .cls-1, .cls-2, .cls-3, .cls-4, .cls-5, .cls-6, .cls-7 {
        fill-rule: evenodd;
      }

      .cls-2 {
        fill: #d63232;
      }

      .cls-3 {
        fill: #e4af71;
      }

      .cls-4 {
        fill: #e8e8e8;
      }

      .cls-8 {
        font-family: Bauhaus93, 'Bauhaus 93';
        font-size: 50px;
      }

      .cls-8, .cls-9 {
        fill: #b63333;
      }

      .cls-5 {
        fill: #fdd79b;
      }

      .cls-10 {
        fill: #333;
      }

      .cls-6 {
        fill: #dd3b3a;
      }

      .cls-7 {
        fill: #d32f2f;
      }
    </style>
  </defs>
  <g>
    <path class="cls-9" d="M83.88,3.02c21.64-4.62,43.51-2.06,62.55,6.33,20.6,9.08,37.89,25,48.02,46.07.88,1.85.1,4.07-1.75,4.96-.86.41-1.85.48-2.76.18h0c-10.39-3.42-23.28,1.42-30.25,9.48-.92,1.06-2.35,1.51-3.72,1.18-13.47-3.39-24.75-.22-34.75,9.33-.95.9-2.31,1.24-3.57.89-13.42-3.22-24.64-.93-34.42,9.06-.92.94-2.27,1.32-3.54,1-13.27-3.29-24.62-.15-34.5,9.25-1.04.99-2.55,1.29-3.89.78-10.65-4.06-23.42-1.1-31.26,7.14-1.42,1.49-3.77,1.55-5.26.13-.67-.64-1.08-1.5-1.14-2.42-1.76-23.27,5.31-45.65,18.65-63.78,12.34-16.77,30.04-29.9,51.07-36.74.26-2.78,1.8-5.06,4.12-5.69,2.32-.62,4.79.58,6.41,2.86Z"/>
    <path class="cls-6" d="M79.6,7.88c44.97-12.05,92.03,8.67,111.5,49.14-13.09-4.32-27.34,2.61-34.23,10.57-15.48-3.91-27.89.38-38.21,10.24-17.01-4.12-28.88.64-38.08,10.04-14.52-3.6-27.15-.11-37.95,10.17-10.69-4.09-25.46-2.26-35.28,8.05C3.97,61.31,34.64,19.93,79.6,7.88Z"/>
    <path class="cls-4" d="M80.4,87.92c-14.65-3.57-27.39-.04-38.32,10.27-.14-.05-.28-.1-.41-.15-3.22-28.41.05-60.58,21.16-84.04,5.18-2.42,9.73-4.19,15.42-5.75-9.8,20.19-4.06,53.43,2.15,79.67h0ZM118.03,77.83c10.9-10.41,23.7-13.73,38.32-10.27.09-.11.19-.23.28-.34-11.42-26.22-30.33-52.44-60.34-62.2-5.7.49-10.52,1.23-16.23,2.73,18.58,12.59,30.24,44.24,37.97,70.07h0Z"/>
    <path class="cls-7" d="M41.66,98.03c-10.72-3.87-24.52-2.15-34.32,8.06C4.47,67.07,26.98,30.76,62.82,13.99c-21.11,23.46-24.38,55.63-21.16,84.04Z"/>
    <path class="cls-2" d="M157.31,67.04c7.35-8.71,20.15-14.12,33.75-10.18C174.04,21.64,136.39,1.44,96.97,4.84c30.01,9.76,48.93,35.98,60.34,62.2Z"/>
    <path class="cls-5" d="M297.67,199.63H15.32c30.78-57.67,91.04-43.15,122.71-21.09,33.81-9.75,121.12-28.85,159.64,21.09Z"/>
    <path class="cls-3" d="M63.57,169.63c1.86-.03,3.4,1.46,3.43,3.32.03,1.86-1.46,3.4-3.32,3.43-.03,0-.07,0-.1,0-1.86-.01-3.37-1.54-3.35-3.4.01-1.85,1.51-3.34,3.35-3.35ZM265.16,187.13c1.57-.02,2.85,1.23,2.87,2.8.02,1.57-1.23,2.85-2.8,2.87-.03,0-.05,0-.08,0-1.57-.02-2.82-1.31-2.79-2.87.02-1.53,1.26-2.77,2.8-2.79ZM204.52,176.02c1.57,0,2.83,1.27,2.83,2.84,0,1.56-1.27,2.83-2.83,2.83-1.57,0-2.84-1.26-2.84-2.83,0-1.57,1.26-2.84,2.83-2.84h0ZM42.8,184.3c1.57-.02,2.85,1.23,2.88,2.79s-1.23,2.85-2.79,2.88c-.03,0-.06,0-.09,0-1.57-.02-2.82-1.31-2.79-2.88.02-1.53,1.26-2.77,2.79-2.79Z"/>
    <path class="cls-10" d="M295.82,201.41h-.07s-139.26,0-139.26,0H15.32s-.07,0-.07,0H1.74c-.98-.02-1.76-.83-1.74-1.81.02-.95.79-1.72,1.74-1.74h12.53c1.78-3.26,3.64-6.27,5.58-9.05,14.6-20.95,33.83-29.76,53.37-31.22,14.52-1.08,29.2,1.91,42.24,7l-21.88-81.65c3.43-1.61,7.03-2.51,10.82-2.79l23.89,89.14c.12.44.18.88.19,1.32,3.39,1.83,6.69,3.83,9.87,6,.56-.16,1.14-.32,1.73-.49.14-.66.41-1.29.79-1.85l15.03-21.68h-13.34c-2.79,0-5.06-2.26-5.06-5.06,0-2.79,2.26-5.06,5.06-5.06h18.35l-28.78-35.14c-1.81-2.13-1.55-5.32.57-7.12,2.13-1.81,5.32-1.55,7.12.57.04.05.08.1.12.15l17.88,21.84h32.23c1.76,0,3.39.91,4.31,2.4l12.23,17.3h45.18c1.86,0,3.57,1.02,4.45,2.66l21.44,34.51c8.06,4.81,15.33,11.01,21.41,18.9.6.77.45,1.88-.32,2.48-.31.24-.69.37-1.08.37h-1.85ZM18.32,197.86h275.62c-19.01-22.18-48.7-29.15-77.87-29.39-30.56-.25-60.57,6.88-77.4,11.72-.16.06-.33.1-.5.11-.12.08-.26.15-.4.21l-19.04,6.86c-.92.31-1.93-.18-2.24-1.11-.3-.9.16-1.88,1.05-2.22l16.61-5.99c-2.53-1.64-5.13-3.17-7.8-4.59-15.17-8.1-34.18-13.75-52.86-12.35-18.55,1.39-36.82,9.77-50.72,29.71-1.58,2.28-3.06,4.62-4.44,7.03h0ZM154.39,172.46c16.99-3.95,39.19-7.71,61.71-7.53,15.31.13,30.78,2.07,44.88,7l-12.01-19.34h-80.81l-13.77,19.87ZM166.11,132.89l7.86,9.59h20.27l-6.78-9.59h-21.34Z"/>
    <path class="cls-1" d="M250.76,77.96c0,1.28-1.07,2.35-2.35,2.35s-2.35-1.06-2.35-2.35v-6.01c0-1.29,1.06-2.35,2.35-2.35s2.35,1.07,2.35,2.35v6.01h0ZM220.17,62.46c-1.13.66-2.57.28-3.19-.84-.66-1.13-.28-2.57.84-3.19l5.23-3.01c1.13-.66,2.57-.28,3.19.85.66,1.13.28,2.57-.85,3.19l-5.23,3.01h0ZM214.63,45.58c-1.28,0-2.35-1.07-2.35-2.35s1.06-2.35,2.35-2.35h6.01c1.28,0,2.35,1.06,2.35,2.35s-1.07,2.35-2.35,2.35h-6.01ZM218.29,28.2c-1.12-.64-1.51-2.07-.88-3.19.64-1.12,2.07-1.51,3.19-.88l5.23,3.01c1.12.64,1.51,2.07.88,3.19-.64,1.12-2.07,1.51-3.19.88l-5.23-3.01ZM233.39,74.3c-.64,1.12-2.07,1.51-3.19.88-1.12-.64-1.51-2.07-.88-3.19l3.01-5.23c.64-1.12,2.07-1.51,3.19-.88,1.12.64,1.51,2.07.88,3.19l-3.01,5.23ZM248.88,22.72c5.57,0,10.91,2.2,14.84,6.14,3.94,3.93,6.15,9.27,6.14,14.84,0,5.57-2.2,10.91-6.14,14.84-3.94,3.94-9.28,6.14-14.84,6.14-5.57,0-10.91-2.2-14.84-6.14-3.94-3.94-6.15-9.28-6.14-14.84,0-5.57,2.2-10.91,6.14-14.84,3.82-3.79,9.05-6.14,14.84-6.14ZM277.63,24.98c1.12-.66,2.56-.28,3.22.84,0,0,0,0,0,0,.63,1.13.25,2.57-.88,3.19l-5.23,3.01c-1.13.66-2.57.28-3.19-.84-.66-1.13-.28-2.57.85-3.19,0,0,5.23-3.01,5.23-3.01ZM283.17,41.86c1.28,0,2.35,1.07,2.35,2.35s-1.06,2.35-2.35,2.35h-6.01c-1.28,0-2.35-1.06-2.35-2.35s1.07-2.35,2.35-2.35h6.01,0ZM230.16,14.99c-.66-1.13-.28-2.57.84-3.19,1.13-.66,2.57-.28,3.19.84l3.01,5.23c.66,1.13.28,2.57-.84,3.19-1.13.66-2.57.28-3.19-.85l-3.01-5.23ZM247.04,9.45c0-1.29,1.05-2.35,2.34-2.35,0,0,0,0,0,0,1.28,0,2.35,1.06,2.35,2.35v6.01c0,1.28-1.06,2.35-2.35,2.35s-2.35-1.07-2.35-2.35v-6.01h0ZM264.42,13.11c.64-1.12,2.07-1.51,3.19-.88,1.12.64,1.51,2.07.88,3.19l-3.01,5.23c-.64,1.12-2.07,1.51-3.19.88-1.12-.64-1.51-2.07-.88-3.19,0,0,3.01-5.23,3.01-5.23ZM279.51,59.23c1.12.64,1.51,2.07.88,3.19-.64,1.12-2.07,1.51-3.19.88l-5.23-3.01c-1.12-.64-1.51-2.07-.88-3.19.64-1.12,2.07-1.51,3.19-.88l5.23,3.01ZM267.64,72.45c.66,1.13.28,2.57-.85,3.2-1.13.66-2.57.28-3.19-.85l-3.01-5.23c-.66-1.13-.28-2.57.84-3.19,1.13-.66,2.57-.28,3.19.85l3.01,5.23Z"/>
  </g>
  <text class="cls-8" transform="translate(19.34 247.72)"><tspan x="0" y="0">SummerSide</tspan><tspan x="40.14" y="46">Supplies</tspan></text>
</svg>